M48
; DRILL file {KiCad 9.0.6} date 2025-12-18T19:10:32+0530
; FORMAT={-:-/ absolute / metric / decimal}
; #@! TF.CreationDate,2025-12-18T19:10:32+05:30
; #@! TF.GenerationSoftware,Kicad,Pcbnew,9.0.6
; #@! TF.FileFunction,Plated,1,2,PTH
FMAT,2
METRIC
; #@! TA.AperFunction,Plated,PTH,ViaDrill
T1C0.300
; #@! TA.AperFunction,Plated,PTH,ComponentDrill
T2C1.000
%
G90
G05
T1
X52.794Y-52.832
X52.832Y-55.118
X53.594Y-35.56
X53.594Y-52.832
X56.134Y-39.878
X56.388Y-58.928
X56.642Y-64.262
X56.896Y-42.926
X56.896Y-43.942
X59.182Y-28.956
X59.182Y-31.242
X59.182Y-36.83
X60.96Y-64.262
X61.214Y-28.448
X61.214Y-42.926
X61.214Y-43.942
X61.214Y-58.928
X67.564Y-61.976
X68.58Y-54.102
X74.676Y-48.006
X74.676Y-70.866
X75.946Y-64.516
X75.946Y-66.04
X79.248Y-32.512
X79.248Y-39.116
X81.28Y-39.37
X87.122Y-50.292
X87.122Y-53.34
X87.122Y-66.548
X87.122Y-75.184
X89.662Y-66.548
X89.662Y-75.184
X94.488Y-74.168
X94.488Y-76.962
T2
X48.006Y-33.812
X48.006Y-36.352
X48.006Y-38.892
X48.006Y-41.432
X48.006Y-43.972
X48.006Y-46.512
X48.006Y-49.052
X48.006Y-51.592
X48.006Y-54.132
X48.006Y-56.672
X48.006Y-59.212
X48.006Y-61.752
X48.006Y-64.292
X48.006Y-66.832
X48.006Y-69.372
X48.006Y-71.912
X48.006Y-74.452
X48.006Y-76.992
X48.006Y-79.532
X48.006Y-82.072
X50.546Y-33.812
X50.546Y-36.352
X50.546Y-38.892
X50.546Y-41.432
X50.546Y-43.972
X50.546Y-46.512
X50.546Y-49.052
X50.546Y-51.592
X50.546Y-54.132
X50.546Y-56.672
X50.546Y-59.212
X50.546Y-61.752
X50.546Y-64.292
X50.546Y-66.832
X50.546Y-69.372
X50.546Y-71.912
X50.546Y-74.452
X50.546Y-76.992
X50.546Y-79.532
X50.546Y-82.072
X72.39Y-65.278
X72.39Y-67.818
X72.39Y-70.358
X72.39Y-72.898
X72.39Y-75.438
X72.39Y-77.978
X76.708Y-29.972
X78.486Y-43.942
X78.486Y-46.482
X78.486Y-49.022
X78.486Y-51.562
X78.486Y-54.102
X78.486Y-56.642
X79.248Y-29.972
X81.788Y-29.972
X82.042Y-84.836
X84.328Y-29.972
X84.582Y-84.836
X86.868Y-29.972
X87.122Y-84.836
X89.408Y-29.972
X89.662Y-84.836
X91.948Y-29.972
X92.202Y-70.358
X92.202Y-72.898
X92.202Y-75.438
X92.202Y-84.836
X94.488Y-29.972
X94.742Y-84.836
M30
